# xmcd
#
# Track frame offsets:
#	150
#	16587
#	32750
#	44998
#	63569
#	80254
#	95474
#	108927
#	123770
#	139977
#
# Disc length: 2070 seconds
#
# Revision: 0
# Processed by: cddbd v1.5.2PL0 Copyright (c) Steve Scherf et al.
# Submitted via: audiograbber 1.83.01
#
DISCID=7f08140a
DTITLE=Various Artist - FH-7113 Forever Hits/Girls Sing Country
DYEAR=1900
DGENRE=Karaoke
TTITLE0=Reba McEntire - And Still
TTITLE1=Martina McBride - Happy Girl
TTITLE2=Dolly Parton - Jolene
TTITLE3=Terri Clark - If I Were You
TTITLE4=Reba McEntire - Somebody Should Leave
TTITLE5=Pam Tillis - Shake The Sugar Tree
TTITLE6=Dolly Parton - Here You Come Again
TTITLE7=Terri Clark - Poor Poor Pitiful Me
TTITLE8=Reba McEntire - Whoever's In New England
TTITLE9=Jeannie C Riley - Harper Valley PTA
EXTD=
EXTT0=
EXTT1=
EXTT2=
EXTT3=
EXTT4=
EXTT5=
EXTT6=
EXTT7=
EXTT8=
EXTT9=
PLAYORDER=
